<mxfile host="app.diagrams.net" agent="Mozilla/5.0 (Windows NT 10.0; Win64; x64) AppleWebKit/537.36 (KHTML, like Gecko) Chrome/128.0.0.0 Safari/537.36 Edg/128.0.0.0" version="24.7.7">
  <diagram name="‫עמוד-1‬" id="WO8tn2kk-DlWHcxrGE6Z">
    <mxGraphModel dx="1060" dy="1015" grid="0" gridSize="10" guides="1" tooltips="1" connect="1" arrows="1" fold="1" page="0" pageScale="1" pageWidth="827" pageHeight="1169" math="0" shadow="0">
      <root>
        <mxCell id="0" />
        <mxCell id="1" parent="0" />
        <mxCell id="SWGrfpdy-jyNAFPXpuxr-1" value="dbContext" style="whiteSpace=wrap;html=1;aspect=fixed;" vertex="1" parent="1">
          <mxGeometry x="183" y="198" width="80" height="80" as="geometry" />
        </mxCell>
        <mxCell id="SWGrfpdy-jyNAFPXpuxr-2" value="service" style="rounded=0;whiteSpace=wrap;html=1;" vertex="1" parent="1">
          <mxGeometry x="220" y="62" width="120" height="60" as="geometry" />
        </mxCell>
        <mxCell id="SWGrfpdy-jyNAFPXpuxr-3" value="service" style="rounded=0;whiteSpace=wrap;html=1;" vertex="1" parent="1">
          <mxGeometry x="68" y="62" width="120" height="60" as="geometry" />
        </mxCell>
        <mxCell id="SWGrfpdy-jyNAFPXpuxr-4" value="service" style="rounded=0;whiteSpace=wrap;html=1;" vertex="1" parent="1">
          <mxGeometry x="-78" y="62" width="120" height="60" as="geometry" />
        </mxCell>
        <mxCell id="SWGrfpdy-jyNAFPXpuxr-28" value="" style="edgeStyle=none;curved=1;rounded=0;orthogonalLoop=1;jettySize=auto;html=1;fontSize=12;startSize=8;endSize=8;" edge="1" parent="1" source="SWGrfpdy-jyNAFPXpuxr-5" target="SWGrfpdy-jyNAFPXpuxr-13">
          <mxGeometry relative="1" as="geometry" />
        </mxCell>
        <mxCell id="SWGrfpdy-jyNAFPXpuxr-5" value="service" style="rounded=0;whiteSpace=wrap;html=1;" vertex="1" parent="1">
          <mxGeometry x="358" y="62" width="120" height="60" as="geometry" />
        </mxCell>
        <mxCell id="SWGrfpdy-jyNAFPXpuxr-6" value="model" style="rounded=1;whiteSpace=wrap;html=1;" vertex="1" parent="1">
          <mxGeometry x="320" y="336" width="92" height="60" as="geometry" />
        </mxCell>
        <mxCell id="SWGrfpdy-jyNAFPXpuxr-7" value="model" style="rounded=1;whiteSpace=wrap;html=1;" vertex="1" parent="1">
          <mxGeometry x="191" y="336" width="92" height="60" as="geometry" />
        </mxCell>
        <mxCell id="SWGrfpdy-jyNAFPXpuxr-8" value="model" style="rounded=1;whiteSpace=wrap;html=1;" vertex="1" parent="1">
          <mxGeometry x="59" y="341" width="92" height="60" as="geometry" />
        </mxCell>
        <mxCell id="SWGrfpdy-jyNAFPXpuxr-10" value="controler" style="whiteSpace=wrap;html=1;aspect=fixed;" vertex="1" parent="1">
          <mxGeometry x="-55" y="-67" width="80" height="80" as="geometry" />
        </mxCell>
        <mxCell id="SWGrfpdy-jyNAFPXpuxr-11" value="controller" style="whiteSpace=wrap;html=1;aspect=fixed;" vertex="1" parent="1">
          <mxGeometry x="82" y="-70" width="80" height="80" as="geometry" />
        </mxCell>
        <mxCell id="SWGrfpdy-jyNAFPXpuxr-12" value="controller" style="whiteSpace=wrap;html=1;aspect=fixed;" vertex="1" parent="1">
          <mxGeometry x="227" y="-70" width="80" height="80" as="geometry" />
        </mxCell>
        <mxCell id="SWGrfpdy-jyNAFPXpuxr-13" value="" style="whiteSpace=wrap;html=1;aspect=fixed;" vertex="1" parent="1">
          <mxGeometry x="369" y="-70" width="80" height="80" as="geometry" />
        </mxCell>
        <mxCell id="SWGrfpdy-jyNAFPXpuxr-14" value="&#xa;&lt;span style=&quot;color: rgb(0, 0, 0); font-family: Helvetica; font-size: 12px; font-style: normal; font-variant-ligatures: normal; font-variant-caps: normal; font-weight: 400; letter-spacing: normal; orphans: 2; text-align: center; text-indent: 0px; text-transform: none; widows: 2; word-spacing: 0px; -webkit-text-stroke-width: 0px; white-space: normal; background-color: rgb(255, 255, 255); text-decoration-thickness: initial; text-decoration-style: initial; text-decoration-color: initial; display: inline !important; float: none;&quot;&gt;interFase&lt;/span&gt;&#xa;&#xa;" style="shape=hexagon;perimeter=hexagonPerimeter2;whiteSpace=wrap;html=1;fixedSize=1;" vertex="1" parent="1">
          <mxGeometry x="-45" y="149" width="68" height="45" as="geometry" />
        </mxCell>
        <mxCell id="SWGrfpdy-jyNAFPXpuxr-15" value="interFase" style="shape=hexagon;perimeter=hexagonPerimeter2;whiteSpace=wrap;html=1;fixedSize=1;" vertex="1" parent="1">
          <mxGeometry x="103" y="149" width="68" height="45" as="geometry" />
        </mxCell>
        <mxCell id="SWGrfpdy-jyNAFPXpuxr-16" value="&#xa;&lt;span style=&quot;color: rgb(0, 0, 0); font-family: Helvetica; font-size: 12px; font-style: normal; font-variant-ligatures: normal; font-variant-caps: normal; font-weight: 400; letter-spacing: normal; orphans: 2; text-align: center; text-indent: 0px; text-transform: none; widows: 2; word-spacing: 0px; -webkit-text-stroke-width: 0px; white-space: normal; background-color: rgb(255, 255, 255); text-decoration-thickness: initial; text-decoration-style: initial; text-decoration-color: initial; display: inline !important; float: none;&quot;&gt;interFase&lt;/span&gt;&#xa;&#xa;" style="shape=hexagon;perimeter=hexagonPerimeter2;whiteSpace=wrap;html=1;fixedSize=1;" vertex="1" parent="1">
          <mxGeometry x="272" y="153" width="68" height="45" as="geometry" />
        </mxCell>
        <mxCell id="SWGrfpdy-jyNAFPXpuxr-17" value="interFase" style="shape=hexagon;perimeter=hexagonPerimeter2;whiteSpace=wrap;html=1;fixedSize=1;" vertex="1" parent="1">
          <mxGeometry x="388" y="153" width="68" height="45" as="geometry" />
        </mxCell>
        <mxCell id="SWGrfpdy-jyNAFPXpuxr-18" value="" style="endArrow=classic;html=1;rounded=0;fontSize=12;startSize=8;endSize=8;curved=1;" edge="1" parent="1">
          <mxGeometry width="50" height="50" relative="1" as="geometry">
            <mxPoint x="231" y="185" as="sourcePoint" />
            <mxPoint x="281" y="135" as="targetPoint" />
          </mxGeometry>
        </mxCell>
      </root>
    </mxGraphModel>
  </diagram>
</mxfile>
